<?xml version="1.0" encoding="UTF-8" standalone="no"?>
<!-- Created with Inkscape (http://www.inkscape.org/) -->

<svg
   width="39.871758mm"
   height="39.871758mm"
   viewBox="0 0 39.871758 39.871758"
   version="1.1"
   id="svg11146"
   xmlns="http://www.w3.org/2000/svg"
   xmlns:svg="http://www.w3.org/2000/svg">
  <defs
     id="defs11143" />
  <g
     id="layer1"
     transform="translate(-78.230583,-126.36851)">
    <rect
       style="fill:#e6e6e6;stroke:none;stroke-width:1;stroke-linecap:round;stroke-linejoin:round;stop-color:#000000"
       id="rect2559"
       width="39.871758"
       height="39.871758"
       x="78.230583"
       y="126.36851"
       ry="1.7747978" />
    <g
       id="g2575"
       transform="matrix(1.2177637,0,0,1.2177637,12.53695,-62.42424)">
      <rect
         style="fill:#ffffff;stroke:none;stroke-width:0.76814;stroke-linecap:round;stroke-linejoin:round;stop-color:#000000"
         id="rect2561"
         width="4.8722739"
         height="4.8097286"
         x="61.075947"
         y="164.38832"
         ry="0.82291883" />
      <path
         id="text2565"
         style="font-weight:bold;font-stretch:condensed;font-size:6.33633px;line-height:500%;font-family:Roboto;-inkscape-font-specification:'Roboto Bold Condensed';letter-spacing:0px;word-spacing:0px;stroke-width:0.935413"
         d="M 71.160156 86.771484 L 76.328125 97.052734 L 71.046875 107.50391 L 75.716797 107.50391 L 78.75 100.01367 L 78.835938 100.01367 L 81.882812 107.50391 L 86.738281 107.50391 L 81.242188 97.052734 L 86.396484 86.771484 L 81.740234 86.771484 L 78.792969 94.105469 L 78.707031 94.105469 L 75.802734 86.771484 L 71.160156 86.771484 z M 86.539062 92.097656 L 91.181641 107.60352 L 90.796875 108.78711 C 90.654476 109.30924 90.42656 109.72996 90.113281 110.05273 C 89.809496 110.37551 89.363975 110.53711 88.775391 110.53711 C 88.680458 110.53711 88.580989 110.52875 88.476562 110.50977 C 88.38163 110.49078 88.280208 110.47211 88.175781 110.45312 L 87.693359 113.40039 C 88.149038 113.51431 88.499268 113.59511 88.746094 113.64258 C 89.002413 113.69954 89.292462 113.72852 89.615234 113.72852 C 90.963283 113.72852 91.964103 113.35349 92.619141 112.60352 C 93.274178 111.86304 93.796322 110.93689 94.185547 109.82617 L 99.498047 92.097656 L 95.181641 92.097656 L 92.875 101.32422 L 92.791016 101.32422 L 92.791016 101.28125 L 90.853516 92.097656 L 86.539062 92.097656 z M 100.72266 92.097656 L 100.72266 95.244141 L 106.81641 95.244141 L 100.53711 105.1543 L 100.53711 107.50391 L 111.67188 107.50391 L 111.67188 104.37109 L 105.22266 104.37109 L 111.54492 94.390625 L 111.54492 92.097656 L 100.72266 92.097656 z "
         transform="matrix(0.21726985,0,0,0.21726985,53.946125,155.03234)" />
      <path
         id="text2569"
         style="font-weight:bold;font-stretch:condensed;font-size:6.33633px;line-height:500%;font-family:Roboto;-inkscape-font-specification:'Roboto Bold Condensed';letter-spacing:0px;word-spacing:0px;stroke-width:0.935413"
         d="M 88.375 42.033203 L 88.375 64.248047 L 91.808594 64.248047 L 92.078125 62.525391 C 92.46735 63.180428 92.93767 63.683904 93.488281 64.035156 C 94.038893 64.376915 94.683351 64.546875 95.423828 64.546875 C 97.113635 64.546875 98.396148 63.85895 99.269531 62.482422 C 100.15241 61.105894 100.59375 59.253592 100.59375 56.927734 L 100.59375 56.628906 C 100.59375 54.170142 100.15241 52.210015 99.269531 50.748047 C 98.396148 49.286079 97.109457 48.554688 95.410156 48.554688 C 94.764612 48.554688 94.190645 48.697623 93.6875 48.982422 C 93.184355 49.267221 92.747192 49.675407 92.376953 50.207031 L 92.376953 42.033203 L 88.375 42.033203 z M 76.927734 43.513672 L 71.046875 64.248047 L 75.232422 64.248047 L 76.400391 59.761719 L 81.583984 59.761719 L 82.765625 64.248047 L 86.966797 64.248047 L 81.085938 43.513672 L 76.927734 43.513672 z M 108.38281 48.554688 C 106.37973 48.554688 104.8381 49.286079 103.75586 50.748047 C 102.68312 52.200521 102.14648 54.067312 102.14648 56.345703 L 102.14648 56.757812 C 102.14648 59.055191 102.68312 60.930338 103.75586 62.382812 C 104.8381 63.825794 106.38391 64.546875 108.39648 64.546875 C 109.97237 64.546875 111.27355 64.035042 112.29883 63.009766 C 113.3336 61.974996 113.83707 60.655149 113.80859 59.050781 L 113.76562 58.964844 L 110.13477 58.964844 C 110.13477 59.752787 109.98765 60.359911 109.69336 60.787109 C 109.39907 61.204814 108.96608 61.414062 108.39648 61.414062 C 107.55158 61.414062 106.96926 60.995566 106.64648 60.160156 C 106.32371 59.324746 106.16211 58.1913 106.16211 56.757812 L 106.16211 56.345703 C 106.16211 54.950188 106.32371 53.829279 106.64648 52.984375 C 106.96926 52.129978 107.5474 51.703125 108.38281 51.703125 C 108.9619 51.703125 109.39907 51.964197 109.69336 52.486328 C 109.98765 53.00846 110.13477 53.696384 110.13477 54.550781 L 113.7793 54.550781 L 113.80859 54.478516 C 113.83707 52.665296 113.3584 51.227312 112.37109 50.164062 C 111.38379 49.09132 110.05363 48.554688 108.38281 48.554688 z M 78.949219 50.021484 L 79.035156 50.021484 L 80.757812 56.601562 L 77.226562 56.601562 L 78.949219 50.021484 z M 94.384766 51.716797 C 95.220176 51.716797 95.794143 52.147829 96.107422 53.011719 C 96.420701 53.875609 96.578125 55.081499 96.578125 56.628906 L 96.578125 56.927734 C 96.578125 58.389702 96.426832 59.500302 96.123047 60.259766 C 95.819261 61.019229 95.245294 61.400391 94.400391 61.400391 C 93.916232 61.400391 93.506094 61.3051 93.173828 61.115234 C 92.841563 60.915875 92.576312 60.621647 92.376953 60.232422 L 92.376953 53.070312 C 92.576312 52.643114 92.841563 52.309598 93.173828 52.072266 C 93.515587 51.834933 93.919594 51.716797 94.384766 51.716797 z "
         transform="matrix(0.21726985,0,0,0.21726985,53.946125,155.03234)" />
      <rect
         style="fill:#ffffff;stroke:none;stroke-width:0.76814;stroke-linecap:round;stroke-linejoin:round;stop-color:#000000"
         id="rect2571"
         width="4.8722739"
         height="4.8097286"
         x="61.075947"
         y="173.50879"
         ry="0.82291883" />
      <path
         style="font-variation-settings:normal;opacity:1;fill:none;fill-opacity:1;stroke:#000000;stroke-width:1.0856;stroke-linecap:round;stroke-linejoin:round;stroke-miterlimit:4;stroke-dasharray:none;stroke-dashoffset:0;stroke-opacity:1;stop-color:#000000;stop-opacity:1"
         d="m 62.218233,167.2976 0.971754,1.31649 1.854107,-2.88393"
         id="path2573" />
    </g>
  </g>
</svg>
