<?xml version="1.0" encoding="UTF-8" standalone="no"?>
<!-- Created with Inkscape (http://www.inkscape.org/) -->

<svg
   width="39.871758mm"
   height="39.871758mm"
   viewBox="0 0 39.871758 39.871758"
   version="1.1"
   id="svg11146"
   xmlns="http://www.w3.org/2000/svg"
   xmlns:svg="http://www.w3.org/2000/svg">
  <defs
     id="defs11143" />
  <g
     id="layer1"
     transform="translate(-84.911095,-128.56412)">
    <path
       id="rect6634"
       style="fill:#e6e6e6;stroke:none;stroke-width:3.77953;stroke-linecap:round;stroke-linejoin:round;stop-color:#000000"
       d="M 6.7070312 0 C 2.9908562 0 0 2.9908562 0 6.7070312 L 0 143.98828 C 0 147.70446 2.9908562 150.69727 6.7070312 150.69727 L 143.98828 150.69727 C 147.70446 150.69727 150.69727 147.70446 150.69727 143.98828 L 150.69727 6.7070312 C 150.69727 2.9908562 147.70446 0 143.98828 0 L 6.7070312 0 z "
       transform="matrix(0.26458333,0,0,0.26458333,84.911095,128.56412)" />
    <path
       id="text6638"
       style="font-weight:bold;font-stretch:condensed;font-size:8.24893px;line-height:500%;font-family:Roboto;-inkscape-font-specification:'Roboto Bold Condensed';letter-spacing:0px;word-spacing:0px;stroke-width:0.999999"
       d="M 55.066406 60.777344 L 55.066406 84.525391 L 58.734375 84.525391 L 59.023438 82.683594 C 59.439538 83.38386 59.942621 83.92137 60.53125 84.296875 C 61.119879 84.662231 61.809958 84.84375 62.601562 84.84375 C 64.408046 84.84375 65.77725 84.108292 66.710938 82.636719 C 67.654774 81.165145 68.126953 79.187623 68.126953 76.701172 L 68.126953 76.380859 C 68.126953 73.752325 67.654774 71.656662 66.710938 70.09375 C 65.77725 68.530838 64.402569 67.748047 62.585938 67.748047 C 61.89582 67.748047 61.282026 67.900615 60.744141 68.205078 C 60.206255 68.509542 59.739552 68.947293 59.34375 69.515625 L 59.34375 60.777344 L 55.066406 60.777344 z M 42.826172 62.359375 L 36.539062 84.525391 L 41.015625 84.525391 L 42.263672 79.730469 L 47.804688 79.730469 L 49.068359 84.525391 L 53.558594 84.525391 L 47.271484 62.359375 L 42.826172 62.359375 z M 44.988281 69.316406 L 45.080078 69.316406 L 46.921875 76.349609 L 43.146484 76.349609 L 44.988281 69.316406 z M 61.490234 71.128906 C 62.383327 71.128906 62.997121 71.590133 63.332031 72.513672 C 63.666941 73.437211 63.833984 74.726608 63.833984 76.380859 L 63.833984 76.701172 C 63.833984 78.264084 63.672417 79.449816 63.347656 80.261719 C 63.022895 81.073621 62.409101 81.480469 61.505859 81.480469 C 60.988271 81.480469 60.55052 81.378757 60.195312 81.175781 C 59.840105 80.962657 59.556874 80.648522 59.34375 80.232422 L 59.34375 72.574219 C 59.556874 72.117524 59.840105 71.763485 60.195312 71.509766 C 60.560669 71.256046 60.992944 71.128906 61.490234 71.128906 z "
       transform="matrix(0.26458333,0,0,0.26458333,84.911095,128.56412)" />
    <path
       id="rect6640"
       style="fill:#ffffff;stroke:none;stroke-width:3.77953;stroke-linecap:round;stroke-linejoin:round;stop-color:#000000"
       d="M 79.625 54.457031 C 77.381821 54.457031 75.576172 56.26268 75.576172 58.505859 L 75.576172 86.595703 C 75.576172 88.838882 77.381821 90.644531 79.625 90.644531 L 110.10742 90.644531 C 112.3506 90.644531 114.15625 88.838882 114.15625 86.595703 L 114.15625 58.505859 C 114.15625 56.26268 112.3506 54.457031 110.10742 54.457031 L 79.625 54.457031 z "
       transform="matrix(0.26458333,0,0,0.26458333,84.911095,128.56412)" />
    <path
       style="fill:none;stroke:#000000;stroke-width:0.5;stroke-linecap:round;stroke-linejoin:round;stroke-miterlimit:4;stroke-dasharray:none;stop-color:#000000"
       d="m 106.65568,145.40453 v 4.71075"
       id="path6646" />
    <path
       style="font-variation-settings:normal;vector-effect:none;fill:none;fill-opacity:1;stroke:#000000;stroke-width:0.5;stroke-linecap:round;stroke-linejoin:round;stroke-miterlimit:4;stroke-dasharray:none;stroke-dashoffset:0;stroke-opacity:1;-inkscape-stroke:none;stop-color:#000000"
       d="m 105.98434,144.75722 0.67134,0.64731 0.67135,-0.64731"
       id="path6648" />
    <path
       style="font-variation-settings:normal;vector-effect:none;fill:none;fill-opacity:1;stroke:#000000;stroke-width:0.5;stroke-linecap:round;stroke-linejoin:round;stroke-miterlimit:4;stroke-dasharray:none;stroke-dashoffset:0;stroke-opacity:1;-inkscape-stroke:none;stop-color:#000000"
       d="m 105.98434,150.7626 0.67134,-0.64732 0.67135,0.64732"
       id="path6650" />
  </g>
</svg>
