<?xml version="1.0" encoding="UTF-8" standalone="no"?>
<!-- Created with Inkscape (http://www.inkscape.org/) -->

<svg
   width="39.871758mm"
   height="39.871758mm"
   viewBox="0 0 39.871758 39.871758"
   version="1.1"
   id="svg11146"
   xmlns="http://www.w3.org/2000/svg"
   xmlns:svg="http://www.w3.org/2000/svg">
  <defs
     id="defs11143" />
  <g
     id="layer1"
     transform="translate(-84.911095,-128.56412)">
    <path
       id="rect6738"
       style="fill:#e6e6e6;stroke:none;stroke-width:3.77953;stroke-linecap:round;stroke-linejoin:round;stop-color:#000000"
       d="M 6.7070312 0 C 2.9908562 0 0 2.9908562 0 6.7070312 L 0 143.98828 C 0 147.70446 2.9908562 150.69727 6.7070312 150.69727 L 143.98828 150.69727 C 147.70446 150.69727 150.69727 147.70446 150.69727 143.98828 L 150.69727 6.7070312 C 150.69727 2.9908562 147.70446 0 143.98828 0 L 6.7070312 0 z "
       transform="matrix(0.26458333,0,0,0.26458333,84.911095,128.56412)" />
    <g
       id="g9983"
       transform="translate(537.71157,77.402334)">
      <path
         id="rect2499-5-5"
         style="fill:#ffffff;stroke:none;stroke-width:3.49563;stroke-linecap:round;stroke-linejoin:round;stop-color:#000000"
         d="M 66.298828 54.943359 C 64.224143 54.943359 62.554688 56.612815 62.554688 58.6875 L 62.554688 90.035156 C 62.554688 92.109842 64.224143 93.78125 66.298828 93.78125 L 120.47266 93.78125 C 122.54734 93.78125 124.21875 92.109842 124.21875 90.035156 L 124.21875 58.6875 C 124.21875 56.612815 122.54734 54.943359 120.47266 54.943359 L 66.298828 54.943359 z "
         transform="matrix(0.26458333,0,0,0.26458333,-452.80048,51.161786)" />
      <path
         id="path2497-7-3"
         style="fill:#000000;stroke:none;stroke-width:3.49562;stroke-linecap:round;stroke-linejoin:round;stop-color:#000000"
         d="M 100.68945 70.458984 L 107.95703 79.193359 L 115.22656 70.458984 L 100.68945 70.458984 z "
         transform="matrix(0.26458333,0,0,0.26458333,-452.80048,51.161786)" />
      <path
         id="text2505-3-5"
         style="font-weight:bold;font-stretch:condensed;font-size:7.62932px;line-height:500%;font-family:Roboto;-inkscape-font-specification:'Roboto Bold Condensed';letter-spacing:0px;word-spacing:0px;stroke-width:0.924888"
         d="M 43.613281 62.589844 L 43.613281 84.552734 L 47.005859 84.552734 L 47.273438 82.849609 C 47.658283 83.497276 48.123554 83.994498 48.667969 84.341797 C 49.212384 84.67971 49.849887 84.849609 50.582031 84.849609 C 52.252822 84.849609 53.521211 84.167678 54.384766 82.806641 C 55.257707 81.445603 55.693359 79.616091 55.693359 77.316406 L 55.693359 77.021484 C 55.693359 74.590389 55.257707 72.650594 54.384766 71.205078 C 53.521211 69.759562 52.248537 69.037109 50.568359 69.037109 C 49.93008 69.037109 49.362717 69.17739 48.865234 69.458984 C 48.367752 69.740578 47.936385 70.14428 47.570312 70.669922 L 47.570312 62.589844 L 43.613281 62.589844 z M 32.292969 64.052734 L 26.478516 84.552734 L 30.617188 84.552734 L 31.771484 80.119141 L 36.896484 80.119141 L 38.066406 84.552734 L 42.21875 84.552734 L 36.404297 64.052734 L 32.292969 64.052734 z M 34.292969 70.488281 L 34.376953 70.488281 L 36.080078 76.992188 L 32.589844 76.992188 L 34.292969 70.488281 z M 49.554688 72.164062 C 50.380697 72.164062 50.948059 72.591144 51.257812 73.445312 C 51.567566 74.299481 51.722656 75.49149 51.722656 77.021484 L 51.722656 77.316406 C 51.722656 78.761922 51.573804 79.860411 51.273438 80.611328 C 50.973071 81.362245 50.403755 81.738281 49.568359 81.738281 C 49.08965 81.738281 48.685948 81.642807 48.357422 81.455078 C 48.028896 81.257962 47.767428 80.966876 47.570312 80.582031 L 47.570312 73.5 C 47.767428 73.077609 48.028896 72.750287 48.357422 72.515625 C 48.695335 72.280963 49.094751 72.164062 49.554688 72.164062 z "
         transform="matrix(0.26458333,0,0,0.26458333,-452.80048,51.161786)" />
      <path
         id="text7762"
         style="font-weight:bold;font-stretch:condensed;font-size:7.62932px;line-height:500%;font-family:Roboto;-inkscape-font-specification:'Roboto Bold Condensed';letter-spacing:0px;word-spacing:0px;stroke-width:0.924888"
         d="M 81.345703 69.037109 C 79.365159 69.037109 77.839588 69.759562 76.769531 71.205078 C 75.708861 72.641208 75.177734 74.485529 75.177734 76.738281 L 75.177734 77.146484 C 75.177734 79.418009 75.708861 81.272855 76.769531 82.708984 C 77.839588 84.135727 79.369444 84.849609 81.359375 84.849609 C 82.917528 84.849609 84.203058 84.341863 85.216797 83.328125 C 86.239922 82.305 86.737144 81.000375 86.708984 79.414062 L 86.666016 79.330078 L 83.076172 79.330078 C 83.076172 80.109155 82.931605 80.710421 82.640625 81.132812 C 82.349645 81.545817 81.922563 81.751953 81.359375 81.751953 C 80.523979 81.751953 79.946093 81.337728 79.626953 80.511719 C 79.307813 79.68571 79.148438 78.563841 79.148438 77.146484 L 79.148438 76.738281 C 79.148438 75.358471 79.307813 74.251411 79.626953 73.416016 C 79.946093 72.571234 80.519694 72.148438 81.345703 72.148438 C 81.918278 72.148438 82.349645 72.407572 82.640625 72.923828 C 82.931605 73.440084 83.076172 74.120062 83.076172 74.964844 L 86.681641 74.964844 L 86.708984 74.894531 C 86.737144 73.101716 86.263302 71.680191 85.287109 70.628906 C 84.310917 69.568236 82.997721 69.037109 81.345703 69.037109 z "
         transform="matrix(0.26458333,0,0,0.26458333,-452.80048,51.161786)" />
    </g>
  </g>
</svg>
