<?xml version="1.0" encoding="UTF-8" standalone="no"?>
<!-- Created with Inkscape (http://www.inkscape.org/) -->

<svg
   width="39.871758mm"
   height="39.871758mm"
   viewBox="0 0 39.871758 39.871758"
   version="1.1"
   id="svg11146"
   xmlns="http://www.w3.org/2000/svg"
   xmlns:svg="http://www.w3.org/2000/svg">
  <defs
     id="defs11143" />
  <g
     id="layer1"
     transform="translate(-72.416327,-122.94621)">
    <g
       id="g107837"
       transform="translate(394.98374,-72.189789)">
      <rect
         style="fill:#e6e6e6;stroke:none;stroke-width:1;stroke-linecap:round;stroke-linejoin:round;stop-color:#000000"
         id="rect2577-6"
         width="39.871758"
         height="39.871758"
         x="-322.56741"
         y="195.136"
         ry="1.7747978" />
      <g
         id="g101267"
         transform="matrix(0.92407408,0,0,0.92407408,-30.26418,-35.432818)">
        <g
           id="path2579-9">
          <path
             style="color:#000000;fill:#808080;stroke-linecap:square;stroke-linejoin:round;-inkscape-stroke:none"
             d="m -300.05078,264.38867 v 1.16797 h 0.58398 1.61133 c 0.41497,0 0.69423,0.12178 0.9668,0.37109 0.27257,0.24932 0.52251,0.64936 0.73437,1.17188 0.42372,1.04503 0.67949,2.54532 0.92383,4.07031 0.24435,1.52499 0.47856,3.07505 0.95703,4.31641 0.23924,0.62068 0.54158,1.17245 0.98047,1.59375 0.4389,0.42129 1.03509,0.6875 1.70313,0.6875 h 1.73632 0.58594 v -1.16797 h -0.58594 -1.73632 c -0.38618,0 -0.63773,-0.11482 -0.89453,-0.36133 -0.25681,-0.2465 -0.49721,-0.64776 -0.69922,-1.17187 -0.40404,-1.04824 -0.64778,-2.55228 -0.89258,-4.08008 -0.2448,-1.52781 -0.49147,-3.07966 -0.9961,-4.32422 -0.25231,-0.62228 -0.57179,-1.17722 -1.02929,-1.5957 -0.45751,-0.41848 -1.06883,-0.67774 -1.75391,-0.67774 h -1.61133 z"
             id="path13644" />
          <g
             id="g13634">
            <g
               id="path13636">
              <path
                 style="color:#000000;fill:#808080;fill-rule:evenodd;-inkscape-stroke:none"
                 d="m -290.68164,275.74609 v 2.875 l 2.48828,-1.4375 -0.23242,-0.13476 z"
                 id="path13642" />
            </g>
          </g>
        </g>
        <rect
           style="fill:#ffffff;stroke:none;stroke-width:0.935413;stroke-linecap:round;stroke-linejoin:round;stop-color:#000000"
           id="rect2581-1"
           width="7.6923971"
           height="9.5445433"
           x="-309.91763"
           y="260.2182"
           ry="1.0021207" />
        <path
           id="text2585-2"
           style="font-weight:bold;font-stretch:condensed;font-size:7.40833px;line-height:500%;font-family:Roboto;-inkscape-font-specification:'Roboto Bold Condensed';letter-spacing:0px;word-spacing:0px;stroke-width:0.924073"
           d="M 33.949219 45.285156 L 28.732422 63.679688 L 32.447266 63.679688 L 33.482422 59.699219 L 38.080078 59.699219 L 39.128906 63.679688 L 42.857422 63.679688 L 37.638672 45.285156 L 33.949219 45.285156 z M 35.744141 51.058594 L 35.820312 51.058594 L 37.347656 56.894531 L 34.214844 56.894531 L 35.744141 51.058594 z "
           transform="matrix(0.28632264,0,0,0.28632264,-316.32013,249.51335)" />
        <path
           style="font-variation-settings:normal;fill:none;fill-opacity:1;stroke:#e6e6e6;stroke-width:3.068;stroke-linecap:round;stroke-linejoin:round;stroke-miterlimit:4;stroke-dasharray:none;stroke-dashoffset:0;stroke-opacity:1;marker-end:;stop-color:#000000"
           d="m -299.46749,277.07727 h 1.61248 c 4.40021,0 2.04825,-11.43889 6.26511,-11.43889 h 1.73736"
           id="path2587-0" />
        <rect
           style="fill:#ffffff;stroke:none;stroke-width:0.935413;stroke-linecap:round;stroke-linejoin:round;stop-color:#000000"
           id="rect2589-9"
           width="7.6923971"
           height="9.5445433"
           x="-309.91763"
           y="272.41174"
           ry="1.0021207" />
        <path
           id="text2593-3"
           style="font-weight:bold;font-stretch:condensed;font-size:7.40833px;line-height:500%;font-family:Roboto;-inkscape-font-specification:'Roboto Bold Condensed';letter-spacing:0px;word-spacing:0px;stroke-width:0.924073"
           d="M 29.90625 87.443359 L 29.90625 105.83984 L 36.072266 105.83984 C 37.967339 105.83984 39.424231 105.38754 40.443359 104.48633 C 41.47091 103.57669 41.984375 102.24273 41.984375 100.48242 C 41.984375 99.446449 41.731915 98.540499 41.226562 97.765625 C 40.729632 96.990751 39.967004 96.497673 38.939453 96.287109 C 39.705905 95.95863 40.282485 95.45896 40.669922 94.785156 C 41.065782 94.10293 41.265625 93.326507 41.265625 92.458984 C 41.265625 90.79132 40.72982 89.540863 39.660156 88.707031 C 38.590493 87.864777 37.096122 87.443359 35.175781 87.443359 L 29.90625 87.443359 z M 33.46875 90.236328 L 35.175781 90.236328 C 36.018036 90.236328 36.649185 90.442764 37.070312 90.855469 C 37.49144 91.268174 37.701172 91.913118 37.701172 92.789062 C 37.701172 93.572359 37.499985 94.169326 37.095703 94.582031 C 36.691421 94.994736 36.106295 95.209717 35.339844 95.226562 L 33.46875 95.226562 L 33.46875 90.236328 z M 33.46875 97.689453 L 36.058594 97.689453 L 36.185547 97.689453 C 36.951999 97.714721 37.516737 97.96718 37.878906 98.447266 C 38.241076 98.927351 38.421875 99.606477 38.421875 100.48242 C 38.421875 101.3331 38.223985 101.97804 37.828125 102.41602 C 37.432265 102.84557 36.84714 103.05859 36.072266 103.05859 L 33.46875 103.05859 L 33.46875 97.689453 z "
           transform="matrix(0.28632264,0,0,0.28632264,-316.32013,249.51335)" />
        <g
           id="path2603-1">
          <path
             style="color:#000000;fill:#808080;stroke-linecap:square;stroke-linejoin:round;-inkscape-stroke:none"
             d="m -291.58984,264.40625 c -0.66804,0 -1.26423,0.26621 -1.70313,0.6875 -0.43889,0.42129 -0.74123,0.97502 -0.98047,1.5957 -0.47847,1.24136 -0.71268,2.78947 -0.95703,4.31446 -0.24434,1.52499 -0.50011,3.02528 -0.92383,4.07031 -0.21186,0.52251 -0.4618,0.92256 -0.73437,1.17187 -0.27257,0.24932 -0.55183,0.3711 -0.9668,0.3711 h -1.61133 -0.58398 v 1.16797 h 0.58398 1.61133 c 0.68508,0 1.2964,-0.25926 1.75391,-0.67774 0.4575,-0.41848 0.77698,-0.97147 1.02929,-1.59375 0.50463,-1.24456 0.7513,-2.79641 0.9961,-4.32422 0.2448,-1.5278 0.48854,-3.03184 0.89258,-4.08008 0.20201,-0.52411 0.44241,-0.92536 0.69922,-1.17187 0.2568,-0.24651 0.50835,-0.36328 0.89453,-0.36328 h 1.73632 0.58594 v -1.16797 h -0.58594 z"
             id="path13696" />
          <g
             id="g13686">
            <g
               id="path13688">
              <path
                 style="color:#000000;fill:#808080;fill-rule:evenodd;-inkscape-stroke:none"
                 d="m -290.68164,263.55273 v 2.875 l 2.48828,-1.4375 -0.23242,-0.13476 z"
                 id="path13694" />
            </g>
          </g>
        </g>
        <circle
           style="fill:#e91e63;fill-opacity:1;stroke:none;stroke-width:1.268;stroke-linecap:square;stop-color:#000000"
           id="path81427"
           cx="-283.06839"
           cy="264.99048"
           r="3.4935644" />
        <rect
           style="fill:#2196f3;fill-opacity:1;stroke:none;stroke-width:1.22106;stroke-linecap:square;stop-color:#000000"
           id="rect84677"
           width="5.9536114"
           height="5.9536114"
           x="-286.14163"
           y="274.20721"
           ry="0.56853342" />
      </g>
    </g>
  </g>
</svg>
