<?xml version="1.0" encoding="UTF-8" standalone="no"?>
<!-- Created with Inkscape (http://www.inkscape.org/) -->

<svg
   width="39.871758mm"
   height="39.871758mm"
   viewBox="0 0 39.871758 39.871758"
   version="1.1"
   id="svg11146"
   xmlns="http://www.w3.org/2000/svg"
   xmlns:svg="http://www.w3.org/2000/svg">
  <defs
     id="defs11143">
    <marker
       style="overflow:visible"
       id="TriangleOutS-3"
       refX="0"
       refY="0"
       orient="auto">
      <path
         transform="scale(0.2)"
         style="fill:context-stroke;fill-rule:evenodd;stroke:context-stroke;stroke-width:1pt"
         d="M 5.77,0 -2.88,5 V -5 Z"
         id="path207876-5" />
    </marker>
  </defs>
  <rect
     style="fill:#e6e6e6;stroke:none;stroke-width:1;stroke-linecap:round;stroke-linejoin:round;stop-color:#000000"
     id="rect14271"
     width="39.871758"
     height="39.871758"
     x="1.7763568e-15"
     y="0"
     ry="1.7747978" />
  <g
     id="g22657"
     transform="translate(442.83539,-259.96381)">
    <g
       id="g14295"
       transform="matrix(0.92407408,0,0,0.92407408,-150.53217,29.394991)">
      <g
         id="path14273">
        <path
           style="color:#000000;fill:#808080;stroke-linecap:square;stroke-linejoin:round;-inkscape-stroke:none"
           d="m -300.05078,264.40625 v 1.16797 h 0.58398 1.61133 c 0.41517,0 0.69428,0.12218 0.9668,0.37109 0.27252,0.24892 0.52256,0.64828 0.73437,1.16992 0.42363,1.0433 0.67949,2.54168 0.92383,4.06446 0.24435,1.52278 0.47847,3.0688 0.95703,4.30859 0.23928,0.6199 0.54152,1.17301 0.98047,1.59375 0.43895,0.42074 1.03529,0.68555 1.70313,0.68555 h 1.73632 0.58594 v -1.16797 h -0.58594 -1.73632 c -0.38639,0 -0.63779,-0.11523 -0.89453,-0.36133 -0.25675,-0.24609 -0.49725,-0.64667 -0.69922,-1.16992 -0.40395,-1.0465 -0.64778,-2.54862 -0.89258,-4.07422 -0.2448,-1.5256 -0.49138,-3.07537 -0.9961,-4.31836 -0.25235,-0.6215 -0.57174,-1.17388 -1.02929,-1.5918 -0.45756,-0.41792 -1.06902,-0.67773 -1.75391,-0.67773 h -1.61133 z"
           id="path3766" />
        <g
           id="g3756">
          <g
             id="path3758">
            <path
               id="path3762"
               style="color:#000000;fill:#808080;fill-rule:evenodd;stroke-width:0.815863pt;-inkscape-stroke:none"
               d="M 89.544922 91.619141 L 89.544922 101.66016 L 98.234375 96.640625 L 97.421875 96.169922 L 89.544922 91.619141 z "
               transform="matrix(0.28632264,0,0,0.28632264,-316.32012,249.51335)" />
          </g>
        </g>
      </g>
      <rect
         style="fill:#ffffff;stroke:none;stroke-width:0.935413;stroke-linecap:round;stroke-linejoin:round;stop-color:#000000"
         id="rect14275"
         width="7.6923971"
         height="9.5445433"
         x="-309.91763"
         y="260.2182"
         ry="1.0021207" />
      <path
         style="font-variation-settings:normal;fill:#e6e6e6;fill-opacity:1;stroke:#e6e6e6;stroke-width:3.068;stroke-linecap:round;stroke-linejoin:round;stroke-miterlimit:4;stroke-dasharray:none;stroke-dashoffset:0;stroke-opacity:1;marker-end:;stop-color:#000000"
         d="m -299.46749,277.07727 h 1.61248 c 4.40021,0 2.04825,-11.43889 6.26511,-11.43889 h 1.73736"
         id="path14281" />
      <rect
         style="fill:#ffffff;stroke:none;stroke-width:0.935413;stroke-linecap:round;stroke-linejoin:round;stop-color:#000000"
         id="rect14283"
         width="7.6923971"
         height="9.5445433"
         x="-309.91763"
         y="272.41174"
         ry="1.0021207" />
      <g
         id="path14289">
        <path
           style="color:#000000;fill:#808080;stroke-linecap:square;stroke-linejoin:round;-inkscape-stroke:none"
           d="m -291.58984,264.40625 c -0.6666,0 -1.26188,0.26231 -1.70118,0.67969 -0.43929,0.41738 -0.74287,0.96688 -0.98242,1.58203 -0.47909,1.23029 -0.71269,2.76402 -0.95703,4.27344 -0.24434,1.50941 -0.49881,2.99261 -0.92187,4.02539 -0.21153,0.51638 -0.46215,0.91173 -0.73438,1.1582 -0.27223,0.24647 -0.5524,0.36914 -0.96875,0.36914 h -1.61133 -0.58398 v 1.16797 h 0.58398 1.61133 c 0.68371,0 1.29411,-0.25735 1.75195,-0.67188 0.45785,-0.41452 0.77861,-0.96333 1.03125,-1.58007 0.50528,-1.23349 0.74934,-2.77095 0.99415,-4.28321 0.2448,-1.51225 0.48916,-2.99919 0.89257,-4.03515 0.20171,-0.51798 0.44282,-0.9146 0.69922,-1.15821 0.2564,-0.24361 0.50887,-0.35937 0.89649,-0.35937 h 1.73632 0.58594 v -1.16797 h -0.58594 z"
           id="path3996" />
        <g
           id="g3986">
          <g
             id="path3988">
            <path
               id="path3992"
               style="color:#000000;fill:#808080;fill-rule:evenodd;stroke-width:0.815863pt;-inkscape-stroke:none"
               d="M 89.544922 49.033203 L 89.544922 59.074219 L 98.234375 54.054688 L 97.421875 53.583984 L 89.544922 49.033203 z "
               transform="matrix(0.28632264,0,0,0.28632264,-316.32012,249.51335)" />
          </g>
        </g>
      </g>
      <circle
         style="fill:#e91e63;fill-opacity:1;stroke:none;stroke-width:0.960559;stroke-linecap:square;stop-color:#000000"
         id="circle14291"
         cx="-306.07144"
         cy="264.99048"
         r="2.6465154" />
      <rect
         style="fill:#2196f3;fill-opacity:1;stroke:none;stroke-width:1.10361;stroke-linecap:square;stop-color:#000000"
         id="rect14293"
         width="5.3809662"
         height="5.3809662"
         x="-308.76193"
         y="274.49353"
         ry="0.51384932" />
    </g>
    <path
       id="text18594-7"
       style="font-style:normal;font-variant:normal;font-weight:bold;font-stretch:normal;font-size:8.11986px;line-height:500%;font-family:'FuraMono Nerd Font';-inkscape-font-specification:'FuraMono Nerd Font Bold';letter-spacing:0px;word-spacing:0px;fill:#000000;fill-opacity:1;stroke-width:0.984344"
       d="M 122.71094 42.853516 L 122.71094 45.492188 C 124.58298 46.044594 126.08772 47.088585 127.25391 48.623047 C 128.4201 50.157509 129.00195 51.96782 129.00195 54.054688 C 129.00195 56.141555 128.4201 57.953259 127.25391 59.457031 C 126.08772 60.991493 124.58298 62.034092 122.71094 62.617188 L 122.71094 65.255859 C 125.28883 64.642075 127.43653 63.322364 129.09375 61.296875 C 130.75097 59.271386 131.5812 56.878097 131.64258 54.054688 C 131.5812 51.261967 130.75097 48.869239 129.09375 46.84375 C 127.43653 44.818261 125.28883 43.49799 122.71094 42.853516 z M 120.13281 43.804688 L 113.71875 50.21875 L 108.625 50.21875 L 108.625 57.890625 L 113.71875 57.890625 L 120.13281 64.304688 L 120.13281 43.804688 z M 122.71094 48.898438 L 122.71094 59.148438 C 123.6623 58.718788 124.43058 58.074974 125.01367 57.154297 C 125.59677 56.264309 125.90234 55.220878 125.90234 54.054688 C 125.90234 52.888497 125.59677 51.875755 125.01367 50.955078 C 124.43058 50.06509 123.6623 49.389465 122.71094 48.898438 z "
       transform="matrix(0.26458333,0,0,0.26458333,-442.83539,259.96381)" />
    <path
       id="text16555"
       style="font-style:normal;font-variant:normal;font-weight:bold;font-stretch:normal;font-size:8.11986px;line-height:500%;font-family:'FuraMono Nerd Font';-inkscape-font-specification:'FuraMono Nerd Font Bold';letter-spacing:0px;word-spacing:0px;fill:#000000;fill-opacity:1;stroke-width:0.984344"
       d="M 122.71094 85.439453 L 122.71094 88.080078 C 124.58298 88.632484 126.08772 89.674523 127.25391 91.208984 C 128.4201 92.743446 129.00195 94.55571 129.00195 96.642578 C 129.00195 98.729446 128.4201 100.5392 127.25391 102.04297 C 126.08772 103.57743 124.58298 104.62003 122.71094 105.20312 L 122.71094 107.84375 C 125.28883 107.22997 127.43653 105.91026 129.09375 103.88477 C 130.75097 101.85928 131.5812 99.465988 131.64258 96.642578 C 131.5812 93.849858 130.75097 91.455177 129.09375 89.429688 C 127.43653 87.404198 125.28883 86.083927 122.71094 85.439453 z M 120.13281 86.390625 L 113.71875 92.804688 L 108.625 92.804688 L 108.625 100.47852 L 113.71875 100.47852 L 120.13281 106.89258 L 120.13281 86.390625 z M 122.71094 91.486328 L 122.71094 101.73633 C 123.6623 101.30668 124.43058 100.66286 125.01367 99.742188 C 125.59677 98.8522 125.90234 97.808769 125.90234 96.642578 C 125.90234 95.476387 125.59677 94.461693 125.01367 93.541016 C 124.43058 92.651028 123.6623 91.977356 122.71094 91.486328 z "
       transform="matrix(0.26458333,0,0,0.26458333,-442.83539,259.96381)" />
  </g>
</svg>
