<?xml version="1.0" encoding="UTF-8" standalone="no"?>
<!-- Created with Inkscape (http://www.inkscape.org/) -->

<svg
   width="39.871758mm"
   height="39.871758mm"
   viewBox="0 0 39.871758 39.871758"
   version="1.1"
   id="svg11146"
   xmlns="http://www.w3.org/2000/svg"
   xmlns:svg="http://www.w3.org/2000/svg">
  <defs
     id="defs11143" />
  <g
     id="layer1"
     transform="translate(-76.98902,-122.7267)">
    <g
       id="g107837"
       transform="translate(394.98374,-72.189789)">
      <rect
         style="opacity:1;fill:#e6e6e6;stroke:none;stroke-width:1;stroke-linecap:round;stroke-linejoin:round;stop-color:#000000"
         id="rect2607"
         width="39.871758"
         height="39.871758"
         x="-317.99472"
         y="194.91649"
         ry="1.7747978" />
      <rect
         style="fill:#ffffff;stroke:none;stroke-width:0.745649;stroke-linecap:round;stroke-linejoin:round;stop-color:#000000"
         id="rect2609"
         width="9.3784065"
         height="7.6082764"
         x="-306.87549"
         y="201.85246"
         ry="0.79882377" />
      <path
         id="text2613"
         style="font-weight:bold;font-stretch:condensed;font-size:5.90543px;line-height:500%;font-family:Roboto;-inkscape-font-specification:'Roboto Bold Condensed';letter-spacing:0px;word-spacing:0px;stroke-width:0.797133"
         d="M 58.158203 33.027344 L 53.65625 48.894531 L 56.861328 48.894531 L 57.753906 45.460938 L 61.720703 45.460938 L 62.625 48.894531 L 65.839844 48.894531 L 61.339844 33.027344 L 58.158203 33.027344 z M 59.705078 38.007812 L 59.769531 38.007812 L 61.089844 43.042969 L 58.386719 43.042969 L 59.705078 38.007812 z "
         transform="matrix(0.26458333,0,0,0.26458333,-317.99472,194.91649)" />
      <rect
         style="fill:#ffffff;stroke:none;stroke-width:0.745649;stroke-linecap:round;stroke-linejoin:round;stop-color:#000000"
         id="rect2615"
         width="9.3784065"
         height="7.6082764"
         x="-306.87549"
         y="211.04822"
         ry="0.79882377" />
      <path
         id="text2619"
         style="font-weight:bold;font-stretch:condensed;font-size:5.90543px;line-height:500%;font-family:Roboto;-inkscape-font-specification:'Roboto Bold Condensed';letter-spacing:0px;word-spacing:0px;stroke-width:0.797133"
         d="M 59.769531 67.552734 C 58.120254 67.552734 56.80952 68.062903 55.835938 69.080078 C 54.869621 70.097254 54.386719 71.5276 54.386719 73.373047 L 54.386719 78.082031 C 54.386719 79.934744 54.887981 81.36509 55.890625 82.375 C 56.893269 83.377644 58.247677 83.878906 59.955078 83.878906 C 61.618886 83.878906 62.897354 83.458037 63.791016 82.615234 C 64.691942 81.765166 65.128672 80.489199 65.099609 78.789062 L 65.078125 78.724609 L 62.101562 78.724609 C 62.101563 79.756316 61.935777 80.475942 61.601562 80.882812 C 61.267348 81.282417 60.71796 81.480469 59.955078 81.480469 C 59.119541 81.480469 58.494214 81.204525 58.080078 80.652344 C 57.665942 80.092897 57.458984 79.237252 57.458984 78.082031 L 57.458984 73.351562 C 57.458984 72.203607 57.652036 71.352962 58.037109 70.800781 C 58.422183 70.241335 58.999384 69.962891 59.769531 69.962891 C 60.612334 69.962891 61.212348 70.165395 61.568359 70.572266 C 61.931636 70.979136 62.113281 71.691809 62.113281 72.708984 L 65.099609 72.708984 L 65.121094 72.642578 C 65.150156 70.935177 64.69952 69.661162 63.769531 68.818359 C 62.839542 67.975557 61.505995 67.552734 59.769531 67.552734 z "
         transform="matrix(0.26458333,0,0,0.26458333,-317.99472,194.91649)" />
      <rect
         style="fill:#ffffff;stroke:none;stroke-width:0.745649;stroke-linecap:round;stroke-linejoin:round;stop-color:#000000"
         id="rect2621"
         width="9.3784065"
         height="7.6082764"
         x="-306.87549"
         y="220.24397"
         ry="0.79882377" />
      <path
         id="text2625"
         style="font-weight:bold;font-stretch:condensed;font-size:5.90543px;line-height:500%;font-family:Roboto;-inkscape-font-specification:'Roboto Bold Condensed';letter-spacing:0px;word-spacing:0px;stroke-width:0.797133"
         d="M 54.681641 102.53711 L 54.681641 118.40625 L 60 118.40625 C 61.634746 118.40625 62.890401 118.01765 63.769531 117.24023 C 64.655927 116.45556 65.099609 115.30365 65.099609 113.78516 C 65.099609 112.89149 64.881245 112.10984 64.445312 111.44141 C 64.016646 110.77298 63.359052 110.34765 62.472656 110.16602 C 63.13382 109.88266 63.632582 109.45038 63.966797 108.86914 C 64.308277 108.28063 64.478516 107.61358 64.478516 106.86523 C 64.478516 105.42666 64.016473 104.34624 63.09375 103.62695 C 62.171027 102.9004 60.881152 102.53711 59.224609 102.53711 L 54.681641 102.53711 z M 57.753906 104.94727 L 59.224609 104.94727 C 59.951163 104.94727 60.496098 105.12446 60.859375 105.48047 C 61.222652 105.83648 61.404297 106.39282 61.404297 107.14844 C 61.404297 107.82413 61.231558 108.3393 60.882812 108.69531 C 60.534067 109.05132 60.028352 109.23742 59.367188 109.25195 L 57.753906 109.25195 L 57.753906 104.94727 z M 57.753906 111.37695 L 59.988281 111.37695 L 60.097656 111.37695 C 60.75882 111.39875 61.244222 111.61711 61.556641 112.03125 C 61.869059 112.44539 62.025391 113.02954 62.025391 113.78516 C 62.025391 114.51898 61.855152 115.07532 61.513672 115.45312 C 61.172192 115.82367 60.66843 116.00781 60 116.00781 L 57.753906 116.00781 L 57.753906 111.37695 z "
         transform="matrix(0.26458333,0,0,0.26458333,-317.99472,194.91649)" />
      <g
         id="g2633"
         transform="matrix(1.4671718,0,0,1.4671718,-402.56839,-110.78056)">
        <path
           style="fill:#808080;stroke:none;stroke-width:1.20527;stroke-linecap:round;stroke-linejoin:round;stop-color:#000000"
           d="m 73.805927,220.51436 h 4.445047 l -2.222523,-3.3962 z"
           id="path2627" />
        <path
           style="font-variation-settings:normal;opacity:1;fill:#808080;fill-opacity:1;stroke:#808080;stroke-width:1.268;stroke-linecap:square;stroke-linejoin:round;stroke-miterlimit:4;stroke-dasharray:none;stroke-dashoffset:0;stroke-opacity:1;stop-color:#000000;stop-opacity:1"
           d="m 76.02845,219.76944 v 3.59007"
           id="path2629" />
        <path
           style="fill:#808080;stroke:none;stroke-width:1.20527;stroke-linecap:round;stroke-linejoin:round;stop-color:#000000"
           d="m 73.805927,223.37764 h 4.445047 l -2.222523,3.3962 z"
           id="path2631" />
      </g>
    </g>
  </g>
</svg>
