<?xml version="1.0" encoding="UTF-8"?>
<!-- Created with Inkscape (http://www.inkscape.org/) -->
<svg id="svg1" width="300" height="300" version="1.1" viewBox="0 0 300 300" xml:space="preserve" xmlns="http://www.w3.org/2000/svg"><g id="layer1"><path id="path18" d="m130.71 6.1738c-72.317 9.3316-126.46 70.909-126.46 143.83-1.349e-4 72.09 52.954 133.23 124.3 143.53v-162.65h-60.094v39.492h19.039v62.139c-25.003-18.846-41.168-48.792-41.168-82.514-1e-6 -50.579 36.366-92.665 84.377-101.54zm40.641 0.5v286.65c13.608-2.0963 26.847-6.1198 39.32-11.949v-110.7h43.201v79.768c25.933-27.007 40.416-62.999 40.416-100.44-2e-4 -37.443-14.483-73.434-40.416-100.44v81.324h-43.201v-112.26c-12.473-5.8294-25.713-9.8529-39.32-11.949zm-22.172 78.598c-10.397-8.02e-4 -18.825 8.4276-18.824 18.824 2.7e-4 10.396 8.4283 18.823 18.824 18.822 10.395-2.7e-4 18.822-8.4271 18.822-18.822 8.1e-4 -10.396-8.4264-18.824-18.822-18.824zm-19.613 45.611v162.79c6.5295 0.89512 13.113 1.3441 19.703 1.3438 7.0528 1.3e-4 14.096-0.51426 21.074-1.5391v-162.6z" fill="#539aec" stroke-linejoin="round" stroke-width="1.602"/></g></svg>
